<?xml version="1.0" standalone="no"?>
<!DOCTYPE svg PUBLIC "-//W3C//DTD SVG 20010904//EN"
 "http://www.w3.org/TR/2001/REC-SVG-20010904/DTD/svg10.dtd">
<svg version="1.0" xmlns="http://www.w3.org/2000/svg"
 width="300.000000pt" height="198.000000pt" viewBox="0 0 300.000000 198.000000"
 preserveAspectRatio="xMidYMid meet">
<metadata>
Created by potrace 1.10, written by Peter Selinger 2001-2011
</metadata>
<g transform="translate(0.000000,198.000000) scale(0.100000,-0.100000)"
fill="#4169e1" stroke="none">
<path d="M2085 1690 c-227 -46 -408 -227 -477 -477 -31 -113 -31 -392 0 -506
61 -223 188 -353 393 -402 86 -20 286 -20 364 0 98 26 181 70 238 127 84 84
117 173 117 318 l0 68 -67 16 c-38 9 -75 19 -83 21 -14 4 -16 -11 -15 -112 0
-107 -2 -123 -26 -173 -55 -116 -133 -171 -244 -171 -135 0 -215 82 -263 271
-21 84 -24 498 -4 604 30 159 86 266 155 299 75 36 188 16 247 -43 50 -50 72
-122 73 -242 1 -55 5 -87 12 -84 5 2 43 18 83 36 l72 33 0 41 c0 60 -27 165
-55 211 -69 118 -198 176 -385 174 -52 -1 -113 -5 -135 -9z m314 -35 c138 -50
194 -111 226 -247 23 -100 21 -115 -22 -137 -82 -40 -79 -42 -87 56 -16 188
-100 283 -254 283 -80 0 -128 -24 -175 -87 -74 -101 -107 -267 -108 -544 0
-190 15 -318 46 -393 9 -20 13 -42 9 -49 -4 -7 -4 -9 1 -5 4 4 20 -12 35 -36
47 -73 137 -126 214 -126 85 1 187 60 237 137 43 69 60 135 60 236 -1 48 1 87
2 87 21 0 106 -33 110 -43 2 -7 3 -43 1 -81 -8 -156 -64 -250 -194 -322 -102
-57 -159 -69 -325 -69 -118 1 -162 5 -205 19 -172 57 -290 184 -334 359 -36
141 -42 333 -15 477 26 133 105 278 199 362 82 75 157 111 285 138 60 13 243
4 294 -15z"/>
<path d="M341 985 l4 -685 198 0 197 0 0 331 0 331 74 -4 c90 -4 120 -22 156
-94 23 -45 25 -64 31 -239 6 -178 18 -266 39 -304 7 -14 37 -16 222 -16 l213
0 -22 47 c-22 44 -40 134 -63 319 -14 113 -34 181 -66 219 -14 16 -62 48 -106
69 l-80 39 34 7 c50 11 124 51 169 92 62 56 82 103 87 206 4 83 3 91 -27 152
-35 71 -83 116 -168 159 -102 51 -148 56 -537 56 l-358 0 3 -685z m739 654
c151 -24 280 -114 315 -219 21 -64 17 -179 -9 -228 -28 -55 -90 -110 -152
-138 -86 -38 -104 -47 -104 -53 1 -16 21 -32 90 -68 46 -24 83 -52 97 -72 26
-39 49 -137 59 -250 6 -74 29 -194 49 -259 l7 -22 -188 2 -188 3 -13 44 c-7
24 -15 112 -18 195 -11 300 -23 340 -121 389 -47 24 -149 31 -168 11 -17 -16
-19 -81 -17 -471 l1 -173 -122 -1 c-136 -1 -221 1 -226 6 -5 5 -13 1296 -7
1305 8 13 628 13 715 -1z"/>
<path d="M732 1557 c-15 -18 -23 -427 -10 -476 l9 -34 87 7 c116 9 112 8 112
18 0 4 6 8 13 8 24 0 94 79 106 121 7 22 12 76 12 119 0 64 -5 88 -25 129 -26
51 -80 101 -109 101 -9 0 -18 4 -21 9 -10 15 -161 14 -174 -2z m165 -18 c58
-15 117 -70 132 -124 6 -22 11 -70 11 -106 0 -157 -63 -222 -222 -232 l-78 -4
0 239 0 238 56 0 c30 0 76 -5 101 -11z"/>
</g>
</svg>
